<?xml version="1.0" encoding="UTF-8"?><svg id="Layer_2" xmlns="http://www.w3.org/2000/svg" viewBox="0 0 2907.6 1325.92"><defs><style>.cls-1{fill:#fff;}</style></defs><g id="Layer_1-2"><g><path class="cls-1" d="M1526.56,0c-10.89,47.28-53.04,82.62-103.62,82.62s-92.72-35.34-103.62-82.62h-139.2c12.03,123.54,116.13,220.1,242.82,220.1S1653.73,123.54,1665.76,0h-139.2Z"/><polygon class="cls-1" points="2312.6 257.42 2312.6 674.81 2729.99 674.81 2312.6 257.42"/><rect class="cls-1" x="5.37" y="842.12" width="609.58" height="224.89"/><g><path class="cls-1" d="M73.1,148.58c0,2.47-.91,4.31-2.72,5.54-1.82,1.24-4.53,1.7-8.16,1.41l-5.87-.42c-11.61-.87-20.15-4.35-25.67-10.45-5.51-6.08-8.27-15.3-8.27-27.62V62.42H7.83c-2.46,0-4.38-.62-5.77-1.83-1.37-1.24-2.07-2.88-2.07-4.91,0-2.16,.7-3.92,2.07-5.21,1.38-1.31,3.3-1.97,5.77-1.97h14.58V23.93c0-2.76,.79-4.91,2.39-6.43,1.59-1.53,3.77-2.28,6.53-2.28,2.61,0,4.7,.75,6.31,2.28,1.59,1.53,2.39,3.67,2.39,6.43v24.57h24.14c2.32,0,4.17,.66,5.55,1.97,1.37,1.29,2.07,3.05,2.07,5.21,0,2.03-.7,3.67-2.07,4.91-1.38,1.22-3.24,1.83-5.55,1.83h-24.14v55.49c0,7.98,1.63,13.73,4.9,17.29,3.25,3.55,8.15,5.54,14.68,5.99l5.87,.42c5.08,.44,7.62,2.76,7.62,6.97Z"/><path class="cls-1" d="M241.04,87.66v59.18c0,2.61-.76,4.71-2.28,6.3-1.53,1.6-3.59,2.39-6.2,2.39s-4.72-.79-6.32-2.39c-1.59-1.58-2.39-3.69-2.39-6.3v-10.45c-2.76,6.24-6.96,11.07-12.62,14.47-5.66,3.42-12.19,5.12-19.58,5.12-6.82,0-13.09-1.39-18.81-4.13-5.74-2.76-10.27-6.61-13.6-11.53-3.34-4.92-5-10.37-5-16.32,0-7.98,2.03-14.18,6.08-18.6,4.07-4.42,10.74-7.61,20.02-9.58,9.28-1.95,22.19-2.94,38.72-2.94h4.79v-7.17c0-8.71-1.79-15.08-5.33-19.16-3.56-4.06-9.33-6.08-17.3-6.08-9.87,0-19.87,2.68-30.02,8.05-3.92,2.45-6.67,3.69-8.27,3.69-1.74,0-3.2-.66-4.36-1.95-1.16-1.31-1.74-2.97-1.74-5s.62-3.8,1.84-5.33c1.24-1.53,3.23-3.09,5.99-4.67,5.08-2.92,10.83-5.2,17.3-6.86,6.45-1.66,12.87-2.51,19.26-2.51,26.54,0,39.81,13.93,39.81,41.78Zm-25.56,45.58c5.58-5.87,8.38-13.46,8.38-22.73v-6.32h-3.92c-12.77,0-22.48,.54-29.15,1.62-6.67,1.1-11.41,2.92-14.24,5.45-2.83,2.55-4.25,6.28-4.25,11.2,0,5.66,2.07,10.33,6.2,14.04,4.14,3.69,9.32,5.54,15.56,5.54,8.7,0,15.85-2.94,21.43-8.81Z"/><path class="cls-1" d="M432.27,2.38c1.59,1.6,2.39,3.63,2.39,6.1V146.84c0,2.61-.8,4.71-2.39,6.3-1.6,1.6-3.78,2.39-6.53,2.39s-4.9-.79-6.42-2.39c-1.52-1.58-2.28-3.69-2.28-6.3v-11.74c-3.2,6.66-7.87,11.82-14.03,15.43-6.17,3.63-13.38,5.45-21.65,5.45-9.28,0-17.48-2.32-24.58-6.97-7.11-4.64-12.62-11.12-16.53-19.47-3.92-8.32-5.88-18.02-5.88-29.03s1.96-20.45,5.88-28.72c3.91-8.27,9.43-14.66,16.53-19.16,7.1-4.48,15.3-6.74,24.58-6.74,8.27,0,15.48,1.82,21.65,5.45,6.16,3.63,10.83,8.77,14.03,15.45V8.48c0-2.61,.76-4.67,2.28-6.2,1.53-1.53,3.67-2.28,6.42-2.28s4.92,.79,6.53,2.38Zm-23.6,128.47c5.58-7.03,8.37-17,8.37-29.92s-2.79-22.85-8.37-29.8c-5.59-6.97-13.53-10.45-23.82-10.45s-18.31,3.48-24.05,10.45c-5.73,6.95-8.58,16.74-8.58,29.38s2.86,22.94,8.58,30.13c5.74,7.17,13.74,10.76,24.05,10.76s18.23-3.52,23.82-10.55Z"/><path class="cls-1" d="M535.17,20.43c-2.18-2.03-3.26-4.71-3.26-8.03s1.08-5.81,3.26-7.84c2.17-2.03,5-3.05,8.48-3.05s6.32,1.02,8.49,3.05c2.17,2.03,3.26,4.65,3.26,7.84s-1.09,6.01-3.26,8.03c-2.17,2.05-5,3.05-8.49,3.05s-6.31-1-8.48-3.05Zm2.07,132.82c-1.67-1.53-2.5-3.67-2.5-6.41V55.02c0-2.74,.83-4.89,2.5-6.41,1.66-1.53,3.8-2.28,6.41-2.28s4.71,.75,6.32,2.28c1.59,1.53,2.39,3.67,2.39,6.41v91.82c0,2.9-.79,5.08-2.39,6.53-1.6,1.45-3.7,2.16-6.32,2.16s-4.75-.75-6.41-2.28Z"/><path class="cls-1" d="M740.75,147.5c0,2.16-.75,4.06-2.28,5.64-1.53,1.6-3.37,2.39-5.55,2.39-1.88,0-3.84-.87-5.87-2.61l-56.78-48.94v42.86c0,2.74-.83,4.89-2.5,6.41s-3.74,2.28-6.2,2.28c-2.61,0-4.75-.75-6.41-2.28-1.67-1.53-2.5-3.67-2.5-6.41V8.69c0-2.74,.83-4.89,2.5-6.41,1.66-1.53,3.8-2.28,6.41-2.28,2.46,0,4.53,.75,6.2,2.28,1.67,1.53,2.5,3.67,2.5,6.41V97.01l52-47.65c1.74-1.74,3.7-2.61,5.87-2.61s4.06,.81,5.66,2.39c1.59,1.6,2.39,3.48,2.39,5.66,0,2.47-1.01,4.65-3.04,6.53l-42.86,38.28,46.99,40.91c2.32,2.18,3.48,4.5,3.48,6.97Z"/><path class="cls-1" d="M911.08,87.66v59.18c0,2.61-.76,4.71-2.28,6.3-1.53,1.6-3.59,2.39-6.2,2.39s-4.72-.79-6.32-2.39c-1.59-1.58-2.39-3.69-2.39-6.3v-10.45c-2.76,6.24-6.96,11.07-12.62,14.47-5.66,3.42-12.19,5.12-19.58,5.12-6.82,0-13.09-1.39-18.81-4.13-5.74-2.76-10.27-6.61-13.6-11.53-3.34-4.92-5-10.37-5-16.32,0-7.98,2.03-14.18,6.08-18.6,4.07-4.42,10.74-7.61,20.02-9.58,9.28-1.95,22.19-2.94,38.72-2.94h4.79v-7.17c0-8.71-1.79-15.08-5.33-19.16-3.56-4.06-9.33-6.08-17.3-6.08-9.87,0-19.87,2.68-30.02,8.05-3.92,2.45-6.67,3.69-8.27,3.69-1.74,0-3.2-.66-4.36-1.95-1.16-1.31-1.74-2.97-1.74-5s.62-3.8,1.84-5.33c1.24-1.53,3.23-3.09,5.99-4.67,5.08-2.92,10.83-5.2,17.3-6.86,6.45-1.66,12.87-2.51,19.26-2.51,26.54,0,39.81,13.93,39.81,41.78Zm-25.56,45.58c5.58-5.87,8.38-13.46,8.38-22.73v-6.32h-3.92c-12.77,0-22.48,.54-29.15,1.62-6.67,1.1-11.41,2.92-14.24,5.45-2.83,2.55-4.25,6.28-4.25,11.2,0,5.66,2.07,10.33,6.2,14.04,4.14,3.69,9.32,5.54,15.56,5.54,8.7,0,15.85-2.94,21.43-8.81Z"/></g><g><path class="cls-1" d="M8.72,642.72c-5.81-5.81-8.72-13.69-8.72-23.66v-233c0-9.7,2.91-17.44,8.72-23.25,5.81-5.81,13.7-8.73,23.67-8.73s17.87,2.92,23.68,8.73c5.81,5.81,8.72,13.56,8.72,23.25v233c0,9.97-2.91,17.85-8.72,23.66-5.81,5.81-13.71,8.73-23.68,8.73s-17.86-2.92-23.67-8.73Z"/><path class="cls-1" d="M606.44,363c5.67,5.97,8.51,13.65,8.51,23.06v233c0,9.7-2.84,17.52-8.51,23.47-5.68,5.95-13.09,8.92-22.22,8.92-9.97,0-18-3.59-24.09-10.8l-139.13-178.17v156.58c0,9.7-2.7,17.52-8.1,23.47-5.4,5.95-12.67,8.92-21.81,8.92s-16.47-2.97-22.01-8.92c-5.54-5.95-8.3-13.77-8.3-23.47v-233c0-9.41,2.83-17.09,8.51-23.06,5.68-5.95,13.09-8.92,22.22-8.92,10.25,0,18.14,3.61,23.68,10.8l139.13,176.93v-155.75c0-9.41,2.77-17.09,8.3-23.06,5.54-5.95,12.74-8.92,21.6-8.92s16.54,2.97,22.22,8.92Z"/><path class="cls-1" d="M906.8,645.02c-18.83-5.12-34.19-12.4-46.09-21.81-4.16-3.05-7.14-6.3-8.93-9.77-1.81-3.46-2.7-7.8-2.7-13.08,0-6.91,2.14-13.02,6.44-18.27,4.29-5.25,9.2-7.9,14.75-7.9,3.04,0,6.02,.48,8.92,1.47,2.91,.97,6.44,2.68,10.59,5.18,11.91,7.47,23.95,12.96,36.14,16.42,12.18,3.46,25.6,5.2,40.29,5.2,18.27,0,32.24-3.05,41.94-9.15,9.7-6.08,14.54-14.79,14.54-26.15,0-8.58-4.51-15.51-13.5-20.76-9-5.27-24.99-10.26-47.98-14.97-25.75-5.25-46.3-11.63-61.67-19.1-15.37-7.47-26.59-16.74-33.64-27.83-7.06-11.07-10.59-24.49-10.59-40.27,0-17.46,5.05-33.16,15.16-47.14,10.11-13.98,24.09-24.91,41.95-32.81,17.86-7.9,38-11.84,60.43-11.84,39.31,0,71.7,9.83,97.2,29.49,4.13,3.32,7.11,6.72,8.92,10.18,1.8,3.46,2.68,7.69,2.68,12.67,0,6.91-2.14,13.02-6.43,18.27-4.29,5.25-9.19,7.88-14.75,7.88-3.04,0-5.88-.41-8.51-1.24-2.64-.83-6.31-2.63-11.01-5.41-11.36-7.18-21.81-12.59-31.36-16.18-9.55-3.59-21.67-5.41-36.34-5.41-16.9,0-30.19,3.26-39.87,9.75-9.7,6.51-14.53,15.45-14.53,26.79,0,6.66,1.86,12.13,5.6,16.42s9.97,8.09,18.7,11.41c8.72,3.32,21.11,6.8,37.17,10.39,37.65,8.3,64.72,18.97,81.19,31.98,16.46,13.02,24.71,30.86,24.71,53.58,0,17.71-4.92,33.35-14.74,46.93-9.84,13.56-23.68,24.08-41.54,31.56-17.86,7.47-38.56,11.22-62.08,11.22-21.88,0-42.23-2.57-61.06-7.69Z"/><path class="cls-1" d="M1588.17,622.79c0,7.76-3.11,14.33-9.33,19.74-6.24,5.39-13.37,8.09-21.4,8.09-5.25,0-10.24-1.45-14.95-4.36-4.71-2.9-8.3-7.26-10.8-13.08l-22.02-49.02h-140.8l-22,49.02c-2.49,5.81-6.03,10.18-10.6,13.08-4.56,2.92-9.62,4.36-15.16,4.36-8.03,0-15.22-2.7-21.59-8.09-6.37-5.41-9.54-11.97-9.54-19.74,0-3.86,1.1-8.3,3.32-13.29l112.14-235.49c3.03-6.64,7.61-11.68,13.69-15.16,6.08-3.46,12.59-5.18,19.53-5.18s13.85,1.8,19.93,5.39c6.08,3.61,10.8,8.59,14.12,14.95l112.14,235.49c2.22,4.98,3.32,9.43,3.32,13.29Zm-100.51-87.63l-48.17-107.98-48.59,107.98h96.76Z"/><path class="cls-1" d="M2073.06,363c5.68,5.97,8.52,13.65,8.52,23.06v233c0,9.7-2.84,17.52-8.52,23.47-5.68,5.95-13.08,8.92-22.23,8.92-9.97,0-18-3.59-24.08-10.8l-139.14-178.17v156.58c0,9.7-2.68,17.52-8.09,23.47-5.41,5.95-12.67,8.92-21.81,8.92s-16.47-2.97-22.02-8.92c-5.54-5.95-8.3-13.77-8.3-23.47v-233c0-9.41,2.84-17.09,8.52-23.06,5.68-5.95,13.08-8.92,22.23-8.92,10.24,0,18.12,3.61,23.66,10.8l139.14,176.93v-155.75c0-9.41,2.76-17.09,8.3-23.06,5.54-5.95,12.73-8.92,21.59-8.92s16.55,2.97,22.23,8.92Z"/></g><g><path class="cls-1" d="M1130.43,1071.92c0,7.76-3.12,14.33-9.35,19.74-6.23,5.39-13.36,8.09-21.39,8.09-5.26,0-10.25-1.45-14.95-4.36-4.71-2.9-8.3-7.26-10.8-13.08l-22.02-49.02h-140.79l-22.02,49.02c-2.49,5.81-6.02,10.18-10.58,13.08-4.58,2.92-9.63,4.36-15.16,4.36-8.03,0-15.23-2.7-21.6-8.09-6.37-5.41-9.55-11.97-9.55-19.74,0-3.86,1.1-8.3,3.32-13.29l112.14-235.49c3.05-6.64,7.62-11.68,13.71-15.16,6.08-3.46,12.59-5.18,19.52-5.18s13.84,1.8,19.93,5.39c6.09,3.61,10.81,8.59,14.13,14.95l112.14,235.49c2.21,4.98,3.32,9.43,3.32,13.29Zm-100.51-87.63l-48.18-107.98-48.59,107.98h96.77Z"/><path class="cls-1" d="M1370.31,1090.19c-5.26-5.25-7.89-12.73-7.89-22.42v-232.58c0-9.7,2.91-17.44,8.72-23.25,5.81-5.81,13.7-8.73,23.67-8.73s17.87,2.92,23.68,8.73c5.81,5.81,8.72,13.56,8.72,23.25v210.15h106.33c20.2,0,30.3,8.86,30.3,26.58s-10.1,26.17-30.3,26.17h-140.81c-9.7,0-17.17-2.63-22.42-7.9Z"/><path class="cls-1" d="M2093.28,1071.92c0,7.76-3.13,14.33-9.35,19.74-6.22,5.39-13.37,8.09-21.4,8.09-5.25,0-10.24-1.45-14.95-4.36-4.71-2.9-8.3-7.26-10.78-13.08l-22.02-49.02h-140.8l-22.02,49.02c-2.49,5.81-6.03,10.18-10.58,13.08-4.58,2.92-9.62,4.36-15.16,4.36-8.03,0-15.24-2.7-21.61-8.09-6.37-5.41-9.54-11.97-9.54-19.74,0-3.86,1.1-8.3,3.32-13.29l112.14-235.49c3.05-6.64,7.61-11.68,13.71-15.16,6.06-3.46,12.59-5.18,19.51-5.18s13.87,1.8,19.93,5.39c6.1,3.61,10.82,8.59,14.14,14.95l112.14,235.49c2.2,4.98,3.32,9.43,3.32,13.29Zm-100.51-87.63l-48.17-107.98-48.59,107.98h96.76Z"/><path class="cls-1" d="M2604.19,812.13c5.68,5.97,8.52,13.65,8.52,23.06v235.9c0,9.14-2.63,16.34-7.88,21.59s-12.21,7.9-20.78,7.9-15.08-2.63-20.34-7.9c-5.27-5.25-7.9-12.46-7.9-21.59v-146.61l-58.98,110.9c-3.86,7.2-8.09,12.46-12.65,15.78-4.58,3.32-10.04,4.98-16.42,4.98s-11.49-1.66-16.18-4.98c-4.71-3.32-9.02-8.58-12.88-15.78l-58.98-108.81v144.52c0,8.86-2.63,15.99-7.88,21.4-5.27,5.39-12.19,8.09-20.76,8.09s-15.1-2.63-20.36-7.9c-5.27-5.25-7.9-12.46-7.9-21.59v-235.9c0-9.41,2.84-17.09,8.52-23.06,5.68-5.95,13.08-8.92,22.23-8.92,13.29,0,23.39,7.07,30.3,21.19l84.32,159.9,83.88-159.9c7.49-14.12,17.46-21.19,29.92-21.19,9.14,0,16.53,2.97,22.21,8.92Z"/><path class="cls-1" d="M2851.53,1091.85c-5.81-5.81-8.73-13.69-8.73-23.66v-233c0-9.7,2.92-17.44,8.73-23.25,5.81-5.81,13.69-8.73,23.68-8.73s17.85,2.92,23.66,8.73c5.81,5.81,8.73,13.56,8.73,23.25v233c0,9.97-2.92,17.85-8.73,23.66-5.81,5.81-13.69,8.73-23.66,8.73s-17.87-2.92-23.68-8.73Z"/></g><g><path class="cls-1" d="M1791.94,1268.97c0-18.9,4.47-36.92,13.41-54.05,1.1-1.94,2.58-2.92,4.43-2.92,1.02,0,1.87,.34,2.6,1.01s1.08,1.52,1.08,2.53c0,.59-.13,1.23-.38,1.9-7.09,16.71-10.63,33.88-10.63,51.52s3.54,34.81,10.63,51.51c.25,.76,.38,1.39,.38,1.9,0,1.09-.36,1.96-1.08,2.59-.72,.63-1.58,.95-2.6,.95-1.85,0-3.33-.97-4.43-2.92-8.94-17.13-13.41-35.14-13.41-54.04Z"/><path class="cls-1" d="M1862.18,1297.76c-6.16-3.67-10.91-8.95-14.24-15.82-3.34-6.88-5-15-5-24.37s1.66-17.36,5-24.24c3.33-6.88,8.08-12.15,14.24-15.82,6.16-3.67,13.46-5.51,21.9-5.51,5.66,0,10.99,.91,16.02,2.72,5.02,1.81,9.38,4.41,13.09,7.78,1.35,1.27,2.03,2.75,2.03,4.43,0,1.18-.34,2.21-1.01,3.1-.68,.89-1.48,1.33-2.41,1.33-1.01,0-2.24-.46-3.67-1.39-4.31-3.37-8.21-5.74-11.71-7.09-3.5-1.35-7.53-2.02-12.08-2.02-9.8,0-17.33,3.18-22.6,9.55-5.27,6.37-7.91,15.43-7.91,27.15s2.64,20.91,7.91,27.28c5.27,6.37,12.8,9.55,22.6,9.55,4.47,0,8.48-.67,12.02-2.02,3.54-1.35,7.47-3.71,11.77-7.09,1.43-.93,2.66-1.4,3.67-1.4,.93,0,1.73,.43,2.41,1.27,.67,.84,1.01,1.9,1.01,3.17,0,1.69-.68,3.16-2.03,4.43-3.71,3.37-8.08,5.97-13.09,7.78-5.03,1.81-10.36,2.72-16.02,2.72-8.44,0-15.74-1.84-21.9-5.51Z"/><path class="cls-1" d="M2024.84,1298.46c0,1.26-.48,2.32-1.45,3.16-.98,.84-2.13,1.27-3.48,1.27-2.11,0-3.58-1.01-4.43-3.04l-8.99-20.5h-47.71l-9.12,20.5c-.84,2.02-2.32,3.04-4.43,3.04-1.35,0-2.53-.44-3.54-1.33-1.01-.89-1.52-1.96-1.52-3.23,0-.67,.18-1.35,.52-2.02l36.2-80.5c.5-1.18,1.27-2.07,2.28-2.66,1.01-.59,2.11-.89,3.3-.89,1.26,0,2.4,.32,3.41,.95,1.02,.63,1.77,1.5,2.29,2.6l36.2,80.5c.34,.67,.5,1.39,.5,2.15Zm-22.15-27.72l-20.13-45.44-20,45.44h40.13Z"/><path class="cls-1" d="M2060.9,1291.62c-5.32-7.77-7.97-19.07-7.97-33.93s2.66-26.28,7.97-34.05c5.33-7.76,13.08-11.65,23.29-11.65s17.97,3.86,23.29,11.58c5.32,7.72,7.98,19.05,7.98,33.99s-2.67,26.28-7.98,34.05c-5.32,7.76-13.07,11.65-23.29,11.65s-17.96-3.88-23.29-11.65Zm38.99-6.08c3.38-5.99,5.07-15.32,5.07-27.97s-1.67-22.07-5.01-27.98c-3.33-5.9-8.58-8.86-15.76-8.86s-12.32,2.98-15.69,8.93c-3.38,5.95-5.07,15.25-5.07,27.91s1.69,21.98,5.07,27.97c3.37,5.99,8.6,8.99,15.69,8.99s12.32-3,15.7-8.99Z"/><path class="cls-1" d="M2202.1,1264.28c2.82,3.71,4.23,8.31,4.23,13.8,0,7.77-2.62,13.88-7.85,18.36-5.23,4.47-12.36,6.71-21.38,6.71-5.49,0-10.74-.93-15.76-2.79-5.03-1.85-9.26-4.38-12.72-7.59-1.35-1.27-2.03-2.7-2.03-4.31,0-1.27,.34-2.32,1.02-3.16,.67-.84,1.47-1.27,2.4-1.27,1.18,0,2.36,.46,3.54,1.39,3.88,3.13,7.67,5.4,11.39,6.83,3.71,1.44,7.73,2.15,12.02,2.15,6.25,0,10.99-1.43,14.25-4.3,3.24-2.87,4.87-7,4.87-12.41,0-10.88-6.84-16.33-20.51-16.33h-6.71c-1.35,0-2.43-.44-3.22-1.33-.8-.89-1.21-1.92-1.21-3.1s.4-2.19,1.21-3.04c.79-.84,1.87-1.27,3.22-1.27h4.69c6.58,0,11.64-1.45,15.18-4.37,3.54-2.91,5.32-7.11,5.32-12.59,0-4.81-1.43-8.5-4.31-11.07-2.86-2.58-6.91-3.86-12.14-3.86-3.97,0-7.81,.74-11.52,2.21-3.72,1.48-7.43,3.73-11.15,6.77-1.18,.93-2.36,1.39-3.54,1.39-.93,0-1.73-.42-2.4-1.26-.68-.84-1.02-1.9-1.02-3.17,0-1.6,.68-3.04,2.03-4.3,3.46-3.21,7.65-5.74,12.6-7.6,4.93-1.85,10.01-2.79,15.25-2.79,8.11,0,14.53,2.05,19.3,6.14,4.77,4.09,7.16,9.6,7.16,16.52,0,5.15-1.29,9.64-3.86,13.48-2.58,3.84-6.14,6.6-10.7,8.29,5.41,1.52,9.52,4.14,12.35,7.85Z"/><path class="cls-1" d="M2248.23,1291.62c-5.32-7.77-7.97-19.07-7.97-33.93s2.66-26.28,7.97-34.05c5.33-7.76,13.08-11.65,23.29-11.65s17.97,3.86,23.29,11.58c5.32,7.72,7.98,19.05,7.98,33.99s-2.67,26.28-7.98,34.05c-5.32,7.76-13.07,11.65-23.29,11.65s-17.96-3.88-23.29-11.65Zm38.99-6.08c3.38-5.99,5.07-15.32,5.07-27.97s-1.67-22.07-5.01-27.98c-3.33-5.9-8.58-8.86-15.76-8.86s-12.32,2.98-15.69,8.93c-3.38,5.95-5.07,15.25-5.07,27.91s1.69,21.98,5.07,27.97c3.37,5.99,8.6,8.99,15.69,8.99s12.32-3,15.7-8.99Z"/><path class="cls-1" d="M2398.23,1275.48c.83,.8,1.26,1.84,1.26,3.1,0,2.87-1.6,4.31-4.8,4.31h-9.5v14.68c0,1.69-.48,2.99-1.45,3.92-.98,.93-2.21,1.39-3.74,1.39s-2.74-.46-3.67-1.39c-.93-.93-1.39-2.24-1.39-3.92v-14.68h-37.47c-1.51,0-2.7-.42-3.54-1.27-.84-.84-1.27-1.9-1.27-3.16,0-1.18,.46-2.49,1.4-3.92l41.39-59.87c1.17-1.52,2.7-2.28,4.55-2.28,1.43,0,2.66,.46,3.67,1.39,1.02,.93,1.52,2.24,1.52,3.92v56.58h9.5c1.51,0,2.7,.4,3.54,1.2Zm-23.29-1.2v-43.92l-30.51,43.92h30.51Z"/><path class="cls-1" d="M2435.56,1291.62c-5.32-7.77-7.97-19.07-7.97-33.93s2.66-26.28,7.97-34.05c5.33-7.76,13.08-11.65,23.29-11.65s17.97,3.86,23.29,11.58c5.32,7.72,7.98,19.05,7.98,33.99s-2.67,26.28-7.98,34.05c-5.32,7.76-13.07,11.65-23.29,11.65s-17.96-3.88-23.29-11.65Zm38.99-6.08c3.38-5.99,5.07-15.32,5.07-27.97s-1.67-22.07-5.01-27.98c-3.33-5.9-8.58-8.86-15.76-8.86s-12.32,2.98-15.69,8.93c-3.38,5.95-5.07,15.25-5.07,27.91s1.69,21.98,5.07,27.97c3.37,5.99,8.6,8.99,15.69,8.99s12.32-3,15.7-8.99Z"/><path class="cls-1" d="M2582.39,1294.66c.84,.76,1.27,1.82,1.27,3.17,0,2.96-1.6,4.43-4.81,4.43h-49.62c-1.43,0-2.62-.44-3.54-1.33-.93-.89-1.39-1.96-1.39-3.23,0-1.6,.59-2.99,1.77-4.18l30.51-33.54c4.21-4.73,7.27-8.97,9.17-12.72,1.91-3.75,2.85-7.54,2.85-11.33,0-4.89-1.41-8.65-4.24-11.26-2.82-2.62-6.81-3.92-11.96-3.92-4.05,0-7.93,.74-11.64,2.21-3.72,1.48-7.43,3.73-11.15,6.77-1.27,1.01-2.44,1.52-3.54,1.52-.93,0-1.73-.44-2.4-1.33-.68-.89-1.02-1.96-1.02-3.23,0-1.77,.68-3.2,2.03-4.3,3.46-3.21,7.67-5.74,12.66-7.6,4.98-1.85,10.08-2.79,15.32-2.79,8.01,0,14.4,2.11,19.17,6.33,4.77,4.22,7.16,9.91,7.16,17.09,0,5.15-1.16,10.08-3.48,14.81-2.33,4.73-6.14,10-11.45,15.82l-25.32,27.47h40.12c1.52,0,2.7,.38,3.54,1.14Z"/><path class="cls-1" d="M2622.89,1291.62c-5.32-7.77-7.97-19.07-7.97-33.93s2.66-26.28,7.97-34.05c5.33-7.76,13.08-11.65,23.29-11.65s17.97,3.86,23.29,11.58c5.32,7.72,7.98,19.05,7.98,33.99s-2.67,26.28-7.98,34.05c-5.32,7.76-13.07,11.65-23.29,11.65s-17.96-3.88-23.29-11.65Zm38.99-6.08c3.38-5.99,5.07-15.32,5.07-27.97s-1.67-22.07-5.01-27.98c-3.33-5.9-8.58-8.86-15.76-8.86s-12.32,2.98-15.69,8.93c-3.38,5.95-5.07,15.25-5.07,27.91s1.69,21.98,5.07,27.97c3.37,5.99,8.6,8.99,15.69,8.99s12.32-3,15.7-8.99Z"/><path class="cls-1" d="M2711.3,1271.62c-.79-.76-1.19-1.77-1.19-3.04s.4-2.3,1.19-3.1c.8-.8,1.97-1.21,3.48-1.21h27.85c1.6,0,2.8,.4,3.61,1.21,.8,.8,1.21,1.83,1.21,3.1s-.4,2.28-1.21,3.04c-.8,.76-2.01,1.14-3.61,1.14h-27.85c-1.51,0-2.68-.38-3.48-1.14Z"/><path class="cls-1" d="M2846.49,1212.89c.8-.5,1.67-.76,2.6-.76,1.35,0,2.55,.44,3.61,1.33,1.06,.89,1.59,1.96,1.59,3.23,0,.67-.18,1.35-.5,2.02l-36.33,80.75c-.5,1.1-1.27,1.94-2.28,2.53-1.01,.59-2.11,.89-3.3,.89s-2.28-.3-3.29-.89c-1.01-.59-1.77-1.44-2.28-2.53l-36.21-80.75c-.25-.67-.38-1.31-.38-1.9,0-1.35,.56-2.47,1.65-3.35,1.1-.89,2.32-1.33,3.68-1.33,2.02,0,3.49,.97,4.43,2.91l32.65,73.79,32.53-73.79c.42-.93,1.03-1.64,1.83-2.15Z"/><path class="cls-1" d="M2886.05,1325.92c-1.01,0-1.87-.32-2.6-.95-.71-.63-1.07-1.45-1.07-2.47,0-.34,.16-1.01,.5-2.02,7-16.8,10.51-33.96,10.51-51.51s-3.5-34.72-10.51-51.52c-.34-1.01-.5-1.68-.5-2.02,0-1.01,.36-1.83,1.07-2.47,.72-.63,1.59-.95,2.6-.95,1.95,0,3.46,.97,4.56,2.92,8.86,17.21,13.29,35.23,13.29,54.05s-4.43,36.83-13.29,54.04c-1.1,1.94-2.62,2.92-4.56,2.92Z"/></g></g></g></svg>